<svg xmlns="http://www.w3.org/2000/svg" xmlns:xlink="http://www.w3.org/1999/xlink" width="200" zoomAndPan="magnify" viewBox="0 0 150 149.999998" height="200" preserveAspectRatio="xMidYMid meet" version="1.0"><defs><clipPath id="2b00dd43dd"><path d="M 33.382812 13.210938 L 86.289062 13.210938 L 86.289062 78 L 33.382812 78 Z M 33.382812 13.210938 " clip-rule="nonzero"/></clipPath><clipPath id="79201a4674"><path d="M 63.574219 31.050781 L 116.480469 31.050781 L 116.480469 96.3125 L 63.574219 96.3125 Z M 63.574219 31.050781 " clip-rule="nonzero"/></clipPath></defs><rect x="-15" width="180" fill="#ffffff" y="-15" height="179.999997" fill-opacity="1"/><rect x="-15" width="180" fill="#ffffff" y="-15" height="179.999997" fill-opacity="1"/><rect x="-15" width="180" fill="#ffffff" y="-15" height="179.999997" fill-opacity="1"/><rect x="-15" width="180" fill="#05000a" y="-15" height="179.999997" fill-opacity="1"/><g clip-path="url(#2b00dd43dd)"><path fill="#ffffff" d="M 86.066406 13.210938 L 81.648438 29.6875 L 65.167969 34.109375 L 56.574219 36.414062 L 54.273438 45.003906 L 49.851562 61.484375 L 58.445312 59.183594 L 74.933594 54.761719 L 72.628906 63.351562 L 70.519531 71.238281 L 61.925781 73.542969 L 54.039062 75.652344 L 45.449219 77.953125 L 33.382812 65.894531 L 37.792969 49.417969 L 44.519531 24.347656 L 69.589844 17.632812 Z M 86.066406 13.210938 " fill-opacity="1" fill-rule="nonzero"/></g><g clip-path="url(#79201a4674)"><path fill="#ffffff" d="M 104.414062 31.566406 L 116.480469 43.625 L 112.070312 60.105469 L 105.355469 85.175781 L 88.878906 89.589844 L 80.285156 91.890625 L 72.398438 94 L 63.796875 96.3125 L 68.207031 79.832031 L 76.792969 77.53125 L 93.273438 73.117188 L 95.574219 64.527344 L 99.992188 48.046875 L 83.515625 52.460938 L 74.933594 54.761719 L 79.34375 38.28125 L 87.9375 35.980469 Z M 104.414062 31.566406 " fill-opacity="1" fill-rule="nonzero"/></g><path fill="#efeafa" d="M 5.453125 113.351562 C 5.453125 114.296875 5.515625 115.097656 5.640625 115.757812 C 5.769531 116.410156 6 116.910156 6.34375 117.253906 C 6.683594 117.601562 7.167969 117.773438 7.796875 117.773438 L 7.960938 117.773438 C 8.675781 117.773438 9.183594 117.542969 9.476562 117.082031 C 9.777344 116.621094 9.925781 116.007812 9.925781 115.246094 L 12.871094 115.246094 L 12.871094 115.410156 C 12.871094 117.15625 12.445312 118.410156 11.597656 119.175781 C 10.75 119.9375 9.480469 120.320312 7.796875 120.320312 C 5.949219 120.320312 4.597656 119.769531 3.746094 118.675781 C 2.890625 117.578125 2.464844 115.804688 2.464844 113.351562 L 2.464844 112.625 C 2.464844 110.160156 2.890625 108.382812 3.746094 107.292969 C 4.597656 106.199219 5.949219 105.65625 7.796875 105.65625 C 9.480469 105.65625 10.75 106.042969 11.597656 106.816406 C 12.445312 107.582031 12.871094 108.855469 12.871094 110.625 L 12.871094 111.28125 L 9.925781 111.28125 C 9.925781 110.308594 9.789062 109.550781 9.519531 109.015625 C 9.253906 108.472656 8.734375 108.199219 7.960938 108.199219 L 7.796875 108.199219 C 7.167969 108.199219 6.683594 108.371094 6.34375 108.710938 C 6 109.054688 5.769531 109.554688 5.640625 110.21875 C 5.515625 110.875 5.453125 111.679688 5.453125 112.625 Z M 5.453125 113.351562 " fill-opacity="1" fill-rule="nonzero"/><path fill="#efeafa" d="M 19.617188 105.855469 L 23.679688 105.855469 L 27.226562 120.085938 L 24.078125 120.085938 L 23.382812 117.03125 L 19.914062 117.03125 L 19.238281 120.085938 L 16.070312 120.085938 Z M 21.644531 109.257812 L 20.476562 114.484375 L 22.804688 114.484375 Z M 21.644531 109.257812 " fill-opacity="1" fill-rule="nonzero"/><path fill="#efeafa" d="M 34.996094 114.15625 C 33.457031 113.949219 32.308594 113.539062 31.5625 112.925781 C 30.816406 112.316406 30.445312 111.367188 30.445312 110.078125 L 30.445312 109.878906 C 30.445312 108.59375 30.871094 107.566406 31.734375 106.804688 C 32.601562 106.039062 33.835938 105.65625 35.449219 105.65625 C 37.195312 105.65625 38.46875 106.054688 39.265625 106.851562 C 40.066406 107.640625 40.46875 108.867188 40.46875 110.527344 L 40.46875 110.917969 L 37.523438 110.917969 C 37.523438 109.984375 37.371094 109.296875 37.058594 108.859375 C 36.75 108.421875 36.21875 108.199219 35.464844 108.199219 L 35.300781 108.199219 C 34.707031 108.199219 34.246094 108.347656 33.914062 108.640625 C 33.589844 108.929688 33.429688 109.304688 33.429688 109.765625 L 33.429688 109.863281 C 33.429688 110.203125 33.492188 110.492188 33.621094 110.738281 C 33.746094 110.980469 33.988281 111.179688 34.347656 111.332031 C 34.707031 111.488281 35.230469 111.617188 35.921875 111.714844 C 37.476562 111.921875 38.636719 112.328125 39.414062 112.933594 C 40.191406 113.542969 40.582031 114.507812 40.582031 115.828125 L 40.582031 116.007812 C 40.582031 117.371094 40.140625 118.429688 39.257812 119.183594 C 38.378906 119.941406 37.109375 120.320312 35.449219 120.320312 C 33.773438 120.320312 32.5 119.929688 31.628906 119.148438 C 30.765625 118.367188 30.332031 117.121094 30.332031 115.410156 L 30.332031 115.246094 L 33.285156 115.246094 C 33.285156 116.128906 33.460938 116.773438 33.820312 117.175781 C 34.175781 117.574219 34.695312 117.773438 35.378906 117.773438 L 35.542969 117.773438 C 36.21875 117.773438 36.722656 117.617188 37.066406 117.296875 C 37.40625 116.976562 37.578125 116.578125 37.578125 116.101562 L 37.578125 116.007812 C 37.578125 115.667969 37.503906 115.375 37.359375 115.132812 C 37.214844 114.890625 36.957031 114.691406 36.582031 114.527344 C 36.210938 114.359375 35.683594 114.238281 34.996094 114.15625 Z M 34.996094 114.15625 " fill-opacity="1" fill-rule="nonzero"/><path fill="#efeafa" d="M 44.542969 105.890625 L 47.492188 105.890625 L 47.492188 120.085938 L 44.542969 120.085938 Z M 44.542969 105.890625 " fill-opacity="1" fill-rule="nonzero"/><path fill="#efeafa" d="M 62.230469 105.890625 L 62.230469 120.085938 L 59.121094 120.085938 L 54.535156 111.28125 L 54.621094 114.136719 L 54.621094 120.085938 L 51.839844 120.085938 L 51.839844 105.890625 L 54.949219 105.890625 L 59.519531 114.699219 L 59.425781 111.84375 L 59.425781 105.890625 Z M 62.230469 105.890625 " fill-opacity="1" fill-rule="nonzero"/><path fill="#efeafa" d="M 71.59375 120.320312 C 69.761719 120.320312 68.40625 119.769531 67.515625 118.675781 C 66.632812 117.578125 66.191406 115.804688 66.191406 113.351562 L 66.191406 112.625 C 66.191406 110.160156 66.632812 108.382812 67.515625 107.292969 C 68.40625 106.199219 69.761719 105.65625 71.59375 105.65625 C 73.441406 105.65625 74.804688 106.199219 75.6875 107.292969 C 76.574219 108.382812 77.023438 110.160156 77.023438 112.625 L 77.023438 113.351562 C 77.023438 115.804688 76.574219 117.578125 75.6875 118.675781 C 74.804688 119.769531 73.441406 120.320312 71.59375 120.320312 Z M 71.523438 117.773438 L 71.6875 117.773438 C 72.59375 117.773438 73.207031 117.394531 73.535156 116.632812 C 73.855469 115.867188 74.019531 114.769531 74.019531 113.351562 L 74.019531 112.625 C 74.019531 111.203125 73.855469 110.113281 73.535156 109.351562 C 73.207031 108.585938 72.59375 108.199219 71.6875 108.199219 L 71.523438 108.199219 C 70.613281 108.199219 69.992188 108.585938 69.664062 109.351562 C 69.339844 110.113281 69.179688 111.203125 69.179688 112.625 L 69.179688 113.351562 C 69.179688 114.769531 69.339844 115.867188 69.664062 116.632812 C 69.992188 117.394531 70.613281 117.773438 71.523438 117.773438 Z M 71.523438 117.773438 " fill-opacity="1" fill-rule="nonzero"/><path fill="#efeafa" d="M 86.292969 120.320312 C 84.363281 120.320312 82.945312 119.769531 82.03125 118.675781 C 81.125 117.578125 80.671875 115.804688 80.671875 113.351562 L 80.671875 112.625 C 80.671875 110.160156 81.121094 108.382812 82.015625 107.292969 C 82.914062 106.199219 84.277344 105.65625 86.109375 105.65625 C 87.8125 105.65625 89.097656 106.042969 89.96875 106.816406 C 90.839844 107.582031 91.277344 108.855469 91.277344 110.625 L 91.277344 111.28125 L 88.335938 111.28125 C 88.335938 110.308594 88.195312 109.550781 87.917969 109.015625 C 87.644531 108.472656 87.097656 108.199219 86.273438 108.199219 L 86.109375 108.199219 C 85.46875 108.199219 84.96875 108.371094 84.613281 108.710938 C 84.253906 109.054688 84.007812 109.554688 83.875 110.21875 C 83.742188 110.875 83.675781 111.679688 83.675781 112.625 L 83.675781 113.351562 C 83.675781 114.296875 83.746094 115.097656 83.886719 115.757812 C 84.023438 116.410156 84.273438 116.910156 84.636719 117.253906 C 85 117.601562 85.53125 117.773438 86.222656 117.773438 L 86.386719 117.773438 C 86.8125 117.773438 87.183594 117.722656 87.503906 117.617188 C 87.824219 117.515625 88.097656 117.382812 88.316406 117.230469 L 88.316406 114.953125 L 86.4375 114.953125 L 86.4375 112.40625 L 91.261719 112.40625 L 91.261719 118.664062 C 90.742188 119.105469 90.089844 119.492188 89.3125 119.824219 C 88.539062 120.15625 87.53125 120.320312 86.292969 120.320312 Z M 86.292969 120.320312 " fill-opacity="1" fill-rule="nonzero"/><path fill="#efeafa" d="M 100.46875 120.320312 C 99.183594 120.320312 98.167969 120.140625 97.429688 119.78125 C 96.691406 119.425781 96.164062 118.894531 95.847656 118.191406 C 95.527344 117.484375 95.371094 116.621094 95.371094 115.59375 L 95.371094 105.890625 L 98.324219 105.890625 L 98.324219 115.496094 C 98.324219 116.253906 98.46875 116.820312 98.765625 117.203125 C 99.0625 117.582031 99.632812 117.773438 100.46875 117.773438 C 101.304688 117.773438 101.875 117.582031 102.175781 117.203125 C 102.480469 116.820312 102.632812 116.253906 102.632812 115.496094 L 102.632812 105.890625 L 105.578125 105.890625 L 105.578125 115.59375 C 105.578125 116.621094 105.417969 117.484375 105.101562 118.191406 C 104.789062 118.894531 104.261719 119.425781 103.515625 119.78125 C 102.773438 120.140625 101.753906 120.320312 100.46875 120.320312 Z M 100.46875 120.320312 " fill-opacity="1" fill-rule="nonzero"/><path fill="#efeafa" d="M 112.707031 114.988281 L 112.707031 120.085938 L 109.765625 120.085938 L 109.765625 105.890625 L 114.421875 105.890625 C 115.003906 105.890625 115.582031 105.945312 116.152344 106.054688 C 116.730469 106.164062 117.261719 106.371094 117.746094 106.667969 C 118.234375 106.960938 118.625 107.398438 118.914062 107.976562 C 119.203125 108.554688 119.347656 109.316406 119.347656 110.261719 L 119.347656 110.625 C 119.347656 111.765625 119.132812 112.644531 118.707031 113.253906 C 118.285156 113.867188 117.753906 114.308594 117.113281 114.570312 L 119.347656 120.085938 L 116.171875 120.085938 L 114.222656 114.988281 Z M 112.707031 112.441406 L 114.550781 112.441406 C 114.816406 112.441406 115.089844 112.394531 115.367188 112.304688 C 115.644531 112.207031 115.878906 112.023438 116.074219 111.75 C 116.269531 111.472656 116.371094 111.066406 116.371094 110.527344 L 116.371094 110.347656 C 116.371094 109.816406 116.269531 109.417969 116.074219 109.144531 C 115.878906 108.867188 115.644531 108.683594 115.367188 108.589844 C 115.089844 108.492188 114.816406 108.441406 114.550781 108.441406 L 112.707031 108.441406 Z M 112.707031 112.441406 " fill-opacity="1" fill-rule="nonzero"/><path fill="#efeafa" d="M 128.339844 120.320312 C 127.050781 120.320312 126.039062 120.140625 125.300781 119.78125 C 124.5625 119.425781 124.035156 118.894531 123.71875 118.191406 C 123.398438 117.484375 123.242188 116.621094 123.242188 115.59375 L 123.242188 105.890625 L 126.191406 105.890625 L 126.191406 115.496094 C 126.191406 116.253906 126.339844 116.820312 126.632812 117.203125 C 126.933594 117.582031 127.503906 117.773438 128.339844 117.773438 C 129.175781 117.773438 129.746094 117.582031 130.046875 117.203125 C 130.351562 116.820312 130.503906 116.253906 130.503906 115.496094 L 130.503906 105.890625 L 133.445312 105.890625 L 133.445312 115.59375 C 133.445312 116.621094 133.285156 117.484375 132.972656 118.191406 C 132.660156 118.894531 132.132812 119.425781 131.386719 119.78125 C 130.640625 120.140625 129.625 120.320312 128.339844 120.320312 Z M 128.339844 120.320312 " fill-opacity="1" fill-rule="nonzero"/><path fill="#efeafa" d="M 141.894531 114.15625 C 140.355469 113.949219 139.207031 113.539062 138.457031 112.925781 C 137.714844 112.316406 137.339844 111.367188 137.339844 110.078125 L 137.339844 109.878906 C 137.339844 108.59375 137.769531 107.566406 138.632812 106.804688 C 139.496094 106.039062 140.734375 105.65625 142.34375 105.65625 C 144.09375 105.65625 145.367188 106.054688 146.164062 106.851562 C 146.960938 107.640625 147.367188 108.867188 147.367188 110.527344 L 147.367188 110.917969 L 144.421875 110.917969 C 144.421875 109.984375 144.265625 109.296875 143.953125 108.859375 C 143.648438 108.421875 143.117188 108.199219 142.363281 108.199219 L 142.199219 108.199219 C 141.601562 108.199219 141.140625 108.347656 140.8125 108.640625 C 140.488281 108.929688 140.328125 109.304688 140.328125 109.765625 L 140.328125 109.863281 C 140.328125 110.203125 140.390625 110.492188 140.519531 110.738281 C 140.644531 110.980469 140.886719 111.179688 141.246094 111.332031 C 141.601562 111.488281 142.128906 111.617188 142.820312 111.714844 C 144.371094 111.921875 145.535156 112.328125 146.308594 112.933594 C 147.089844 113.542969 147.476562 114.507812 147.476562 115.828125 L 147.476562 116.007812 C 147.476562 117.371094 147.035156 118.429688 146.152344 119.183594 C 145.273438 119.941406 144.007812 120.320312 142.34375 120.320312 C 140.667969 120.320312 139.398438 119.929688 138.527344 119.148438 C 137.660156 118.367188 137.230469 117.121094 137.230469 115.410156 L 137.230469 115.246094 L 140.179688 115.246094 C 140.179688 116.128906 140.359375 116.773438 140.71875 117.175781 C 141.074219 117.574219 141.59375 117.773438 142.277344 117.773438 L 142.441406 117.773438 C 143.113281 117.773438 143.621094 117.617188 143.964844 117.296875 C 144.304688 116.976562 144.472656 116.578125 144.472656 116.101562 L 144.472656 116.007812 C 144.472656 115.667969 144.402344 115.375 144.257812 115.132812 C 144.113281 114.890625 143.851562 114.691406 143.480469 114.527344 C 143.109375 114.359375 142.582031 114.238281 141.894531 114.15625 Z M 141.894531 114.15625 " fill-opacity="1" fill-rule="nonzero"/><path fill="#efeafa" d="M 16.722656 130.578125 C 15.949219 130.476562 15.375 130.269531 15 129.964844 C 14.625 129.652344 14.4375 129.175781 14.4375 128.527344 L 14.4375 128.433594 C 14.4375 127.785156 14.652344 127.273438 15.085938 126.890625 C 15.519531 126.503906 16.144531 126.3125 16.957031 126.3125 C 17.832031 126.3125 18.472656 126.511719 18.871094 126.910156 C 19.273438 127.304688 19.476562 127.925781 19.476562 128.761719 L 19.476562 128.949219 L 17.996094 128.949219 C 17.996094 128.480469 17.917969 128.132812 17.761719 127.914062 C 17.605469 127.695312 17.339844 127.582031 16.964844 127.582031 L 16.878906 127.582031 C 16.578125 127.582031 16.34375 127.660156 16.175781 127.808594 C 16.015625 127.953125 15.933594 128.140625 15.933594 128.371094 L 15.933594 128.421875 C 15.933594 128.59375 15.964844 128.734375 16.03125 128.855469 C 16.097656 128.976562 16.222656 129.078125 16.402344 129.160156 C 16.578125 129.242188 16.84375 129.304688 17.191406 129.347656 C 17.96875 129.453125 18.550781 129.660156 18.9375 129.964844 C 19.332031 130.269531 19.527344 130.757812 19.527344 131.417969 L 19.527344 131.503906 C 19.527344 132.191406 19.304688 132.726562 18.859375 133.105469 C 18.421875 133.488281 17.789062 133.675781 16.957031 133.675781 C 16.113281 133.675781 15.472656 133.484375 15.035156 133.089844 C 14.601562 132.695312 14.386719 132.070312 14.386719 131.210938 L 14.386719 131.125 L 15.867188 131.125 C 15.867188 131.570312 15.953125 131.890625 16.132812 132.09375 C 16.3125 132.296875 16.570312 132.394531 16.914062 132.394531 L 17 132.394531 C 17.339844 132.394531 17.59375 132.316406 17.761719 132.152344 C 17.933594 131.992188 18.019531 131.792969 18.019531 131.558594 L 18.019531 131.503906 C 18.019531 131.339844 17.980469 131.191406 17.910156 131.070312 C 17.839844 130.949219 17.710938 130.851562 17.519531 130.769531 C 17.332031 130.683594 17.070312 130.621094 16.722656 130.578125 Z M 16.722656 130.578125 " fill-opacity="1" fill-rule="nonzero"/><path fill="#efeafa" d="M 29.652344 133.554688 L 25.539062 133.554688 L 25.539062 126.421875 L 27.019531 126.421875 L 27.019531 132.273438 L 29.652344 132.273438 Z M 29.652344 133.554688 " fill-opacity="1" fill-rule="nonzero"/><path fill="#efeafa" d="M 36.890625 126.40625 L 38.925781 126.40625 L 40.710938 133.554688 L 39.125 133.554688 L 38.777344 132.023438 L 37.039062 132.023438 L 36.703125 133.554688 L 35.109375 133.554688 Z M 37.90625 128.121094 L 37.316406 130.742188 L 38.492188 130.742188 Z M 37.90625 128.121094 " fill-opacity="1" fill-rule="nonzero"/><path fill="#efeafa" d="M 48.015625 130.992188 L 48.015625 133.554688 L 46.535156 133.554688 L 46.535156 126.421875 L 48.875 126.421875 C 49.167969 126.421875 49.457031 126.453125 49.75 126.511719 C 50.035156 126.5625 50.300781 126.664062 50.542969 126.8125 C 50.792969 126.964844 50.988281 127.183594 51.132812 127.472656 C 51.28125 127.761719 51.359375 128.144531 51.359375 128.621094 L 51.359375 128.804688 C 51.359375 129.277344 51.28125 129.660156 51.132812 129.957031 C 50.988281 130.246094 50.792969 130.464844 50.542969 130.613281 C 50.300781 130.765625 50.035156 130.863281 49.75 130.917969 C 49.457031 130.96875 49.167969 130.992188 48.875 130.992188 Z M 48.015625 129.710938 L 48.941406 129.710938 C 49.074219 129.710938 49.210938 129.691406 49.351562 129.644531 C 49.492188 129.597656 49.613281 129.503906 49.703125 129.367188 C 49.800781 129.226562 49.851562 129.027344 49.851562 128.761719 L 49.851562 128.664062 C 49.851562 128.402344 49.800781 128.199219 49.703125 128.058594 C 49.613281 127.921875 49.492188 127.832031 49.351562 127.78125 C 49.210938 127.730469 49.074219 127.703125 48.941406 127.703125 L 48.015625 127.703125 Z M 48.015625 129.710938 " fill-opacity="1" fill-rule="nonzero"/><path fill="#efeafa" d="M 59.808594 133.675781 C 59.164062 133.675781 58.652344 133.585938 58.277344 133.410156 C 57.90625 133.226562 57.640625 132.957031 57.480469 132.605469 C 57.324219 132.253906 57.246094 131.816406 57.246094 131.296875 L 57.246094 126.421875 L 58.726562 126.421875 L 58.726562 131.253906 C 58.726562 131.628906 58.800781 131.914062 58.953125 132.109375 C 59.101562 132.300781 59.386719 132.394531 59.808594 132.394531 C 60.226562 132.394531 60.507812 132.300781 60.65625 132.109375 C 60.8125 131.914062 60.890625 131.628906 60.890625 131.253906 L 60.890625 126.421875 L 62.371094 126.421875 L 62.371094 131.296875 C 62.371094 131.816406 62.289062 132.253906 62.128906 132.605469 C 61.972656 132.957031 61.707031 133.226562 61.332031 133.410156 C 60.957031 133.585938 60.449219 133.675781 59.808594 133.675781 Z M 59.808594 133.675781 " fill-opacity="1" fill-rule="nonzero"/><path fill="#efeafa" d="M 73.757812 126.421875 L 73.757812 133.554688 L 72.199219 133.554688 L 69.886719 129.132812 L 69.941406 130.570312 L 69.941406 133.554688 L 68.539062 133.554688 L 68.539062 126.421875 L 70.105469 126.421875 L 72.398438 130.847656 L 72.347656 129.417969 L 72.347656 126.421875 Z M 73.757812 126.421875 " fill-opacity="1" fill-rule="nonzero"/><path fill="#efeafa" d="M 80.011719 126.421875 L 81.492188 126.421875 L 81.492188 133.554688 L 80.011719 133.554688 Z M 80.011719 126.421875 " fill-opacity="1" fill-rule="nonzero"/><path fill="#efeafa" d="M 91.179688 133.574219 L 89.148438 133.574219 L 87.363281 126.421875 L 88.9375 126.421875 L 90.160156 131.867188 L 91.371094 126.421875 L 92.964844 126.421875 Z M 91.179688 133.574219 " fill-opacity="1" fill-rule="nonzero"/><path fill="#efeafa" d="M 98.789062 126.421875 L 103.152344 126.421875 L 103.152344 127.703125 L 100.269531 127.703125 L 100.269531 129.28125 L 102.695312 129.28125 L 102.695312 130.5625 L 100.269531 130.5625 L 100.269531 132.273438 L 103.152344 132.273438 L 103.152344 133.554688 L 98.789062 133.554688 Z M 98.789062 126.421875 " fill-opacity="1" fill-rule="nonzero"/><path fill="#efeafa" d="M 110.695312 130.992188 L 110.695312 133.554688 L 109.214844 133.554688 L 109.214844 126.421875 L 111.554688 126.421875 C 111.847656 126.421875 112.136719 126.453125 112.429688 126.511719 C 112.714844 126.5625 112.980469 126.664062 113.222656 126.8125 C 113.472656 126.964844 113.667969 127.183594 113.8125 127.472656 C 113.960938 127.761719 114.039062 128.144531 114.039062 128.621094 L 114.039062 128.804688 C 114.039062 129.375 113.929688 129.816406 113.71875 130.128906 C 113.503906 130.4375 113.234375 130.652344 112.914062 130.785156 L 114.039062 133.554688 L 112.4375 133.554688 L 111.457031 130.992188 Z M 110.695312 129.710938 L 111.625 129.710938 C 111.753906 129.710938 111.890625 129.691406 112.03125 129.644531 C 112.171875 129.597656 112.292969 129.503906 112.386719 129.367188 C 112.480469 129.226562 112.53125 129.027344 112.53125 128.761719 L 112.53125 128.664062 C 112.53125 128.402344 112.480469 128.199219 112.386719 128.058594 C 112.292969 127.921875 112.171875 127.832031 112.03125 127.78125 C 111.890625 127.730469 111.753906 127.703125 111.625 127.703125 L 110.695312 127.703125 Z M 110.695312 129.710938 " fill-opacity="1" fill-rule="nonzero"/><path fill="#efeafa" d="M 122.238281 130.578125 C 121.460938 130.476562 120.886719 130.269531 120.515625 129.964844 C 120.136719 129.652344 119.953125 129.175781 119.953125 128.527344 L 119.953125 128.433594 C 119.953125 127.785156 120.167969 127.273438 120.601562 126.890625 C 121.035156 126.503906 121.65625 126.3125 122.46875 126.3125 C 123.347656 126.3125 123.984375 126.511719 124.382812 126.910156 C 124.785156 127.304688 124.988281 127.925781 124.988281 128.761719 L 124.988281 128.949219 L 123.507812 128.949219 C 123.507812 128.480469 123.429688 128.132812 123.273438 127.914062 C 123.121094 127.695312 122.851562 127.582031 122.480469 127.582031 L 122.390625 127.582031 C 122.089844 127.582031 121.859375 127.660156 121.691406 127.808594 C 121.527344 127.953125 121.449219 128.140625 121.449219 128.371094 L 121.449219 128.421875 C 121.449219 128.59375 121.480469 128.734375 121.542969 128.855469 C 121.613281 128.976562 121.738281 129.078125 121.917969 129.160156 C 122.09375 129.242188 122.359375 129.304688 122.703125 129.347656 C 123.484375 129.453125 124.066406 129.660156 124.453125 129.964844 C 124.84375 130.269531 125.042969 130.757812 125.042969 131.417969 L 125.042969 131.503906 C 125.042969 132.191406 124.816406 132.726562 124.375 133.105469 C 123.933594 133.488281 123.300781 133.675781 122.46875 133.675781 C 121.625 133.675781 120.984375 133.484375 120.546875 133.089844 C 120.117188 132.695312 119.898438 132.070312 119.898438 131.210938 L 119.898438 131.125 L 121.378906 131.125 C 121.378906 131.570312 121.46875 131.890625 121.648438 132.09375 C 121.824219 132.296875 122.085938 132.394531 122.425781 132.394531 L 122.511719 132.394531 C 122.851562 132.394531 123.105469 132.316406 123.273438 132.152344 C 123.449219 131.992188 123.535156 131.792969 123.535156 131.558594 L 123.535156 131.503906 C 123.535156 131.339844 123.496094 131.191406 123.421875 131.070312 C 123.351562 130.949219 123.222656 130.851562 123.03125 130.769531 C 122.847656 130.683594 122.582031 130.621094 122.238281 130.578125 Z M 122.238281 130.578125 " fill-opacity="1" fill-rule="nonzero"/><path fill="#efeafa" d="M 131.054688 126.421875 L 135.417969 126.421875 L 135.417969 127.703125 L 132.535156 127.703125 L 132.535156 129.28125 L 134.957031 129.28125 L 134.957031 130.5625 L 132.535156 130.5625 L 132.535156 132.273438 L 135.417969 132.273438 L 135.417969 133.554688 L 131.054688 133.554688 Z M 131.054688 126.421875 " fill-opacity="1" fill-rule="nonzero"/></svg>